<mxfile host="65bd71144e">
    <diagram id="cKBd_tNWkHlATPWrMS_m" name="Purpose">
        <mxGraphModel dx="945" dy="696" grid="1" gridSize="10" guides="1" tooltips="1" connect="1" arrows="1" fold="1" page="1" pageScale="1" pageWidth="827" pageHeight="1169" math="0" shadow="0">
            <root>
                <mxCell id="0"/>
                <mxCell id="1" parent="0"/>
                <mxCell id="2" value="" style="shape=actor;whiteSpace=wrap;html=1;" parent="1" vertex="1">
                    <mxGeometry x="330" y="340" width="60" height="90" as="geometry"/>
                </mxCell>
                <mxCell id="3" value="route" style="ellipse;shape=cloud;whiteSpace=wrap;html=1;" parent="1" vertex="1">
                    <mxGeometry x="161" y="340" width="120" height="80" as="geometry"/>
                </mxCell>
                <mxCell id="4" value="bus" style="ellipse;shape=cloud;whiteSpace=wrap;html=1;" parent="1" vertex="1">
                    <mxGeometry x="200" y="240" width="160" height="80" as="geometry"/>
                </mxCell>
                <mxCell id="5" value="bus stations" style="ellipse;shape=cloud;whiteSpace=wrap;html=1;" parent="1" vertex="1">
                    <mxGeometry x="440" y="330" width="160" height="80" as="geometry"/>
                </mxCell>
                <mxCell id="6" value="cities" style="ellipse;shape=cloud;whiteSpace=wrap;html=1;" parent="1" vertex="1">
                    <mxGeometry x="360" y="240" width="160" height="80" as="geometry"/>
                </mxCell>
            </root>
        </mxGraphModel>
    </diagram>
    <diagram id="15UR6XnbTtkx_rhGs56_" name="ER">
        <mxGraphModel dx="945" dy="696" grid="1" gridSize="10" guides="1" tooltips="1" connect="1" arrows="1" fold="1" page="1" pageScale="1" pageWidth="827" pageHeight="1169" math="0" shadow="0">
            <root>
                <mxCell id="2u_GgeGQWRgM_z2mmB_E-0"/>
                <mxCell id="2u_GgeGQWRgM_z2mmB_E-1" parent="2u_GgeGQWRgM_z2mmB_E-0"/>
                <mxCell id="EP0e88sNxeRvX9mwzavs-3" value="" style="edgeStyle=none;html=1;startArrow=ERmany;startFill=0;endArrow=none;endFill=0;entryX=1;entryY=0.5;entryDx=0;entryDy=0;" parent="2u_GgeGQWRgM_z2mmB_E-1" source="ppNSqpG5gArmucL4nR4V-0" target="EP0e88sNxeRvX9mwzavs-1" edge="1">
                    <mxGeometry relative="1" as="geometry">
                        <mxPoint x="330" y="230" as="targetPoint"/>
                    </mxGeometry>
                </mxCell>
                <mxCell id="ppNSqpG5gArmucL4nR4V-0" value="Route" style="rounded=0;whiteSpace=wrap;html=1;" parent="2u_GgeGQWRgM_z2mmB_E-1" vertex="1">
                    <mxGeometry x="362" y="200" width="120" height="60" as="geometry"/>
                </mxCell>
                <mxCell id="ppNSqpG5gArmucL4nR4V-1" value="Bus" style="rounded=0;whiteSpace=wrap;html=1;" parent="2u_GgeGQWRgM_z2mmB_E-1" vertex="1">
                    <mxGeometry x="660" y="200" width="120" height="60" as="geometry"/>
                </mxCell>
                <mxCell id="ppNSqpG5gArmucL4nR4V-9" value="" style="edgeStyle=none;html=1;startArrow=none;startFill=0;endArrow=none;endFill=0;" parent="2u_GgeGQWRgM_z2mmB_E-1" source="ppNSqpG5gArmucL4nR4V-5" target="ppNSqpG5gArmucL4nR4V-0" edge="1">
                    <mxGeometry relative="1" as="geometry"/>
                </mxCell>
                <mxCell id="ppNSqpG5gArmucL4nR4V-5" value="code" style="ellipse;whiteSpace=wrap;html=1;" parent="2u_GgeGQWRgM_z2mmB_E-1" vertex="1">
                    <mxGeometry x="332" y="100" width="90" height="50" as="geometry"/>
                </mxCell>
                <mxCell id="ppNSqpG5gArmucL4nR4V-10" value="" style="edgeStyle=none;html=1;startArrow=none;startFill=0;endArrow=none;endFill=0;" parent="2u_GgeGQWRgM_z2mmB_E-1" source="ppNSqpG5gArmucL4nR4V-6" target="ppNSqpG5gArmucL4nR4V-0" edge="1">
                    <mxGeometry relative="1" as="geometry"/>
                </mxCell>
                <mxCell id="ppNSqpG5gArmucL4nR4V-6" value="distance" style="ellipse;whiteSpace=wrap;html=1;" parent="2u_GgeGQWRgM_z2mmB_E-1" vertex="1">
                    <mxGeometry x="429" y="100" width="90" height="50" as="geometry"/>
                </mxCell>
                <mxCell id="ppNSqpG5gArmucL4nR4V-12" value="" style="edgeStyle=none;html=1;startArrow=none;startFill=0;endArrow=none;endFill=0;" parent="2u_GgeGQWRgM_z2mmB_E-1" source="ppNSqpG5gArmucL4nR4V-7" target="ppNSqpG5gArmucL4nR4V-0" edge="1">
                    <mxGeometry relative="1" as="geometry"/>
                </mxCell>
                <mxCell id="ppNSqpG5gArmucL4nR4V-7" value="source" style="ellipse;whiteSpace=wrap;html=1;" parent="2u_GgeGQWRgM_z2mmB_E-1" vertex="1">
                    <mxGeometry x="332" y="310" width="90" height="50" as="geometry"/>
                </mxCell>
                <mxCell id="ppNSqpG5gArmucL4nR4V-11" value="" style="edgeStyle=none;html=1;startArrow=none;startFill=0;endArrow=none;endFill=0;" parent="2u_GgeGQWRgM_z2mmB_E-1" source="ppNSqpG5gArmucL4nR4V-8" target="ppNSqpG5gArmucL4nR4V-0" edge="1">
                    <mxGeometry relative="1" as="geometry"/>
                </mxCell>
                <mxCell id="ppNSqpG5gArmucL4nR4V-8" value="destination" style="ellipse;whiteSpace=wrap;html=1;" parent="2u_GgeGQWRgM_z2mmB_E-1" vertex="1">
                    <mxGeometry x="429" y="310" width="90" height="50" as="geometry"/>
                </mxCell>
                <mxCell id="ppNSqpG5gArmucL4nR4V-18" value="" style="edgeStyle=none;html=1;startArrow=none;startFill=0;endArrow=none;endFill=0;" parent="2u_GgeGQWRgM_z2mmB_E-1" source="ppNSqpG5gArmucL4nR4V-14" target="ppNSqpG5gArmucL4nR4V-1" edge="1">
                    <mxGeometry relative="1" as="geometry"/>
                </mxCell>
                <mxCell id="ppNSqpG5gArmucL4nR4V-14" value="licence Nr." style="ellipse;whiteSpace=wrap;html=1;" parent="2u_GgeGQWRgM_z2mmB_E-1" vertex="1">
                    <mxGeometry x="630" y="100" width="90" height="50" as="geometry"/>
                </mxCell>
                <mxCell id="ppNSqpG5gArmucL4nR4V-19" value="" style="edgeStyle=none;html=1;startArrow=none;startFill=0;endArrow=none;endFill=0;" parent="2u_GgeGQWRgM_z2mmB_E-1" source="ppNSqpG5gArmucL4nR4V-15" target="ppNSqpG5gArmucL4nR4V-1" edge="1">
                    <mxGeometry relative="1" as="geometry"/>
                </mxCell>
                <mxCell id="ppNSqpG5gArmucL4nR4V-15" value="model" style="ellipse;whiteSpace=wrap;html=1;" parent="2u_GgeGQWRgM_z2mmB_E-1" vertex="1">
                    <mxGeometry x="730" y="100" width="90" height="50" as="geometry"/>
                </mxCell>
                <mxCell id="ppNSqpG5gArmucL4nR4V-20" value="" style="edgeStyle=none;html=1;startArrow=none;startFill=0;endArrow=none;endFill=0;" parent="2u_GgeGQWRgM_z2mmB_E-1" source="ppNSqpG5gArmucL4nR4V-16" target="ppNSqpG5gArmucL4nR4V-1" edge="1">
                    <mxGeometry relative="1" as="geometry"/>
                </mxCell>
                <mxCell id="ppNSqpG5gArmucL4nR4V-16" value="capacity" style="ellipse;whiteSpace=wrap;html=1;" parent="2u_GgeGQWRgM_z2mmB_E-1" vertex="1">
                    <mxGeometry x="630" y="310" width="90" height="50" as="geometry"/>
                </mxCell>
                <mxCell id="ppNSqpG5gArmucL4nR4V-21" value="" style="edgeStyle=none;html=1;startArrow=none;startFill=0;endArrow=none;endFill=0;" parent="2u_GgeGQWRgM_z2mmB_E-1" source="ppNSqpG5gArmucL4nR4V-17" target="ppNSqpG5gArmucL4nR4V-1" edge="1">
                    <mxGeometry relative="1" as="geometry"/>
                </mxCell>
                <mxCell id="ppNSqpG5gArmucL4nR4V-17" value="name" style="ellipse;whiteSpace=wrap;html=1;" parent="2u_GgeGQWRgM_z2mmB_E-1" vertex="1">
                    <mxGeometry x="730" y="310" width="90" height="50" as="geometry"/>
                </mxCell>
                <mxCell id="ppNSqpG5gArmucL4nR4V-22" value="City" style="rounded=0;whiteSpace=wrap;html=1;" parent="2u_GgeGQWRgM_z2mmB_E-1" vertex="1">
                    <mxGeometry x="58" y="400" width="120" height="60" as="geometry"/>
                </mxCell>
                <mxCell id="EP0e88sNxeRvX9mwzavs-2" value="" style="edgeStyle=none;html=1;startArrow=ERmany;startFill=0;endArrow=none;endFill=0;" parent="2u_GgeGQWRgM_z2mmB_E-1" source="V5lSEYwKekA0PapO-hXK-0" target="EP0e88sNxeRvX9mwzavs-1" edge="1">
                    <mxGeometry relative="1" as="geometry"/>
                </mxCell>
                <mxCell id="V5lSEYwKekA0PapO-hXK-0" value="Bus Station" style="rounded=0;whiteSpace=wrap;html=1;" parent="2u_GgeGQWRgM_z2mmB_E-1" vertex="1">
                    <mxGeometry x="58" y="200" width="120" height="60" as="geometry"/>
                </mxCell>
                <mxCell id="V5lSEYwKekA0PapO-hXK-7" value="" style="edgeStyle=none;html=1;startArrow=none;startFill=0;endArrow=none;endFill=0;" parent="2u_GgeGQWRgM_z2mmB_E-1" source="V5lSEYwKekA0PapO-hXK-3" target="V5lSEYwKekA0PapO-hXK-0" edge="1">
                    <mxGeometry relative="1" as="geometry"/>
                </mxCell>
                <mxCell id="V5lSEYwKekA0PapO-hXK-3" value="telephone" style="ellipse;whiteSpace=wrap;html=1;" parent="2u_GgeGQWRgM_z2mmB_E-1" vertex="1">
                    <mxGeometry x="20" y="100" width="90" height="50" as="geometry"/>
                </mxCell>
                <mxCell id="V5lSEYwKekA0PapO-hXK-8" value="" style="edgeStyle=none;html=1;startArrow=none;startFill=0;endArrow=none;endFill=0;" parent="2u_GgeGQWRgM_z2mmB_E-1" source="V5lSEYwKekA0PapO-hXK-4" target="V5lSEYwKekA0PapO-hXK-0" edge="1">
                    <mxGeometry relative="1" as="geometry"/>
                </mxCell>
                <mxCell id="V5lSEYwKekA0PapO-hXK-4" value="address" style="ellipse;whiteSpace=wrap;html=1;" parent="2u_GgeGQWRgM_z2mmB_E-1" vertex="1">
                    <mxGeometry x="120" y="100" width="90" height="50" as="geometry"/>
                </mxCell>
                <mxCell id="EP0e88sNxeRvX9mwzavs-1" value="stop" style="rhombus;whiteSpace=wrap;html=1;rounded=0;" parent="2u_GgeGQWRgM_z2mmB_E-1" vertex="1">
                    <mxGeometry x="220" y="190" width="98" height="80" as="geometry"/>
                </mxCell>
                <mxCell id="EP0e88sNxeRvX9mwzavs-6" style="edgeStyle=none;html=1;startArrow=none;startFill=0;endArrow=ERmany;endFill=0;" parent="2u_GgeGQWRgM_z2mmB_E-1" source="EP0e88sNxeRvX9mwzavs-4" target="V5lSEYwKekA0PapO-hXK-0" edge="1">
                    <mxGeometry relative="1" as="geometry"/>
                </mxCell>
                <mxCell id="EP0e88sNxeRvX9mwzavs-7" style="edgeStyle=none;html=1;startArrow=none;startFill=0;endArrow=ERone;endFill=0;" parent="2u_GgeGQWRgM_z2mmB_E-1" source="EP0e88sNxeRvX9mwzavs-4" target="ppNSqpG5gArmucL4nR4V-22" edge="1">
                    <mxGeometry relative="1" as="geometry"/>
                </mxCell>
                <mxCell id="EP0e88sNxeRvX9mwzavs-4" value="in" style="rhombus;whiteSpace=wrap;html=1;" parent="2u_GgeGQWRgM_z2mmB_E-1" vertex="1">
                    <mxGeometry x="78" y="290" width="80" height="80" as="geometry"/>
                </mxCell>
                <mxCell id="EP0e88sNxeRvX9mwzavs-11" value="" style="edgeStyle=none;html=1;startArrow=none;startFill=0;endArrow=ERmany;endFill=0;" parent="2u_GgeGQWRgM_z2mmB_E-1" source="EP0e88sNxeRvX9mwzavs-8" target="ppNSqpG5gArmucL4nR4V-0" edge="1">
                    <mxGeometry relative="1" as="geometry"/>
                </mxCell>
                <mxCell id="EP0e88sNxeRvX9mwzavs-12" value="" style="edgeStyle=none;html=1;startArrow=none;startFill=0;endArrow=ERmany;endFill=0;" parent="2u_GgeGQWRgM_z2mmB_E-1" source="EP0e88sNxeRvX9mwzavs-8" target="ppNSqpG5gArmucL4nR4V-1" edge="1">
                    <mxGeometry relative="1" as="geometry"/>
                </mxCell>
                <mxCell id="EP0e88sNxeRvX9mwzavs-8" value="drive" style="rhombus;whiteSpace=wrap;html=1;" parent="2u_GgeGQWRgM_z2mmB_E-1" vertex="1">
                    <mxGeometry x="540" y="190" width="80" height="80" as="geometry"/>
                </mxCell>
                <mxCell id="_6o-B0m6dqda3ddUoEW7-4" value="" style="edgeStyle=none;html=1;startArrow=none;startFill=0;endArrow=none;endFill=0;" parent="2u_GgeGQWRgM_z2mmB_E-1" source="_6o-B0m6dqda3ddUoEW7-0" target="ppNSqpG5gArmucL4nR4V-22" edge="1">
                    <mxGeometry relative="1" as="geometry"/>
                </mxCell>
                <mxCell id="_6o-B0m6dqda3ddUoEW7-0" value="name" style="ellipse;whiteSpace=wrap;html=1;" parent="2u_GgeGQWRgM_z2mmB_E-1" vertex="1">
                    <mxGeometry x="20" y="520" width="90" height="50" as="geometry"/>
                </mxCell>
                <mxCell id="_6o-B0m6dqda3ddUoEW7-3" style="html=1;startArrow=none;startFill=0;endArrow=none;endFill=0;" parent="2u_GgeGQWRgM_z2mmB_E-1" source="_6o-B0m6dqda3ddUoEW7-1" target="ppNSqpG5gArmucL4nR4V-22" edge="1">
                    <mxGeometry relative="1" as="geometry"/>
                </mxCell>
                <mxCell id="_6o-B0m6dqda3ddUoEW7-1" value="ZIP" style="ellipse;whiteSpace=wrap;html=1;" parent="2u_GgeGQWRgM_z2mmB_E-1" vertex="1">
                    <mxGeometry x="120" y="520" width="90" height="50" as="geometry"/>
                </mxCell>
            </root>
        </mxGraphModel>
    </diagram>
    <diagram id="g17sYoDOzrbhVf1pqz28" name="UML">
        <mxGraphModel dx="945" dy="696" grid="1" gridSize="10" guides="1" tooltips="1" connect="1" arrows="1" fold="1" page="1" pageScale="1" pageWidth="827" pageHeight="1169" math="0" shadow="0">
            <root>
                <mxCell id="H7DWUn0vDwxtsgN2xfW3-0"/>
                <mxCell id="H7DWUn0vDwxtsgN2xfW3-1" parent="H7DWUn0vDwxtsgN2xfW3-0"/>
                <mxCell id="D67o8UtpvSMQAMpsR08U-1" value="Bus" style="swimlane;fontStyle=0;childLayout=stackLayout;horizontal=1;startSize=30;horizontalStack=0;resizeParent=1;resizeParentMax=0;resizeLast=0;collapsible=1;marginBottom=0;" parent="H7DWUn0vDwxtsgN2xfW3-1" vertex="1">
                    <mxGeometry x="640" y="510" width="140" height="180" as="geometry"/>
                </mxCell>
                <mxCell id="D67o8UtpvSMQAMpsR08U-2" value="+ bus_id: int" style="text;strokeColor=none;fillColor=none;align=left;verticalAlign=middle;spacingLeft=4;spacingRight=4;overflow=hidden;points=[[0,0.5],[1,0.5]];portConstraint=eastwest;rotatable=0;fontStyle=5" parent="D67o8UtpvSMQAMpsR08U-1" vertex="1">
                    <mxGeometry y="30" width="140" height="30" as="geometry"/>
                </mxCell>
                <mxCell id="D67o8UtpvSMQAMpsR08U-3" value="+ licenceNr: int" style="text;strokeColor=none;fillColor=none;align=left;verticalAlign=middle;spacingLeft=4;spacingRight=4;overflow=hidden;points=[[0,0.5],[1,0.5]];portConstraint=eastwest;rotatable=0;" parent="D67o8UtpvSMQAMpsR08U-1" vertex="1">
                    <mxGeometry y="60" width="140" height="30" as="geometry"/>
                </mxCell>
                <mxCell id="D67o8UtpvSMQAMpsR08U-4" value="+ model: string" style="text;strokeColor=none;fillColor=none;align=left;verticalAlign=middle;spacingLeft=4;spacingRight=4;overflow=hidden;points=[[0,0.5],[1,0.5]];portConstraint=eastwest;rotatable=0;" parent="D67o8UtpvSMQAMpsR08U-1" vertex="1">
                    <mxGeometry y="90" width="140" height="30" as="geometry"/>
                </mxCell>
                <mxCell id="D67o8UtpvSMQAMpsR08U-5" value="+ capacity: int" style="text;strokeColor=none;fillColor=none;align=left;verticalAlign=middle;spacingLeft=4;spacingRight=4;overflow=hidden;points=[[0,0.5],[1,0.5]];portConstraint=eastwest;rotatable=0;" parent="D67o8UtpvSMQAMpsR08U-1" vertex="1">
                    <mxGeometry y="120" width="140" height="30" as="geometry"/>
                </mxCell>
                <mxCell id="AQcP6G2RL_BmDb0vY5fI-0" value="+ name: string" style="text;strokeColor=none;fillColor=none;align=left;verticalAlign=middle;spacingLeft=4;spacingRight=4;overflow=hidden;points=[[0,0.5],[1,0.5]];portConstraint=eastwest;rotatable=0;" parent="D67o8UtpvSMQAMpsR08U-1" vertex="1">
                    <mxGeometry y="150" width="140" height="30" as="geometry"/>
                </mxCell>
                <mxCell id="NmcAytKLzcR5IoMg6Rbq-0" style="edgeStyle=none;html=1;entryX=0.5;entryY=1.1;entryDx=0;entryDy=0;entryPerimeter=0;startArrow=ERone;startFill=0;endArrow=ERmany;endFill=0;" parent="H7DWUn0vDwxtsgN2xfW3-1" source="D67o8UtpvSMQAMpsR08U-7" target="D67o8UtpvSMQAMpsR08U-25" edge="1">
                    <mxGeometry relative="1" as="geometry"/>
                </mxCell>
                <mxCell id="D67o8UtpvSMQAMpsR08U-7" value="City" style="swimlane;fontStyle=0;childLayout=stackLayout;horizontal=1;startSize=30;horizontalStack=0;resizeParent=1;resizeParentMax=0;resizeLast=0;collapsible=1;marginBottom=0;" parent="H7DWUn0vDwxtsgN2xfW3-1" vertex="1">
                    <mxGeometry x="110" y="340" width="110" height="90" as="geometry"/>
                </mxCell>
                <mxCell id="D67o8UtpvSMQAMpsR08U-8" value="+ city_id: int" style="text;strokeColor=none;fillColor=none;align=left;verticalAlign=middle;spacingLeft=4;spacingRight=4;overflow=hidden;points=[[0,0.5],[1,0.5]];portConstraint=eastwest;rotatable=0;fontStyle=5" parent="D67o8UtpvSMQAMpsR08U-7" vertex="1">
                    <mxGeometry y="30" width="110" height="30" as="geometry"/>
                </mxCell>
                <mxCell id="D67o8UtpvSMQAMpsR08U-9" value="+ name: string" style="text;strokeColor=none;fillColor=none;align=left;verticalAlign=middle;spacingLeft=4;spacingRight=4;overflow=hidden;points=[[0,0.5],[1,0.5]];portConstraint=eastwest;rotatable=0;" parent="D67o8UtpvSMQAMpsR08U-7" vertex="1">
                    <mxGeometry y="60" width="110" height="30" as="geometry"/>
                </mxCell>
                <mxCell id="D67o8UtpvSMQAMpsR08U-12" value="Route" style="swimlane;fontStyle=0;childLayout=stackLayout;horizontal=1;startSize=30;horizontalStack=0;resizeParent=1;resizeParentMax=0;resizeLast=0;collapsible=1;marginBottom=0;" parent="H7DWUn0vDwxtsgN2xfW3-1" vertex="1">
                    <mxGeometry x="630" y="50" width="160" height="150" as="geometry"/>
                </mxCell>
                <mxCell id="D67o8UtpvSMQAMpsR08U-13" value="+ route_id: int" style="text;strokeColor=none;fillColor=none;align=left;verticalAlign=middle;spacingLeft=4;spacingRight=4;overflow=hidden;points=[[0,0.5],[1,0.5]];portConstraint=eastwest;rotatable=0;fontStyle=5" parent="D67o8UtpvSMQAMpsR08U-12" vertex="1">
                    <mxGeometry y="30" width="160" height="30" as="geometry"/>
                </mxCell>
                <mxCell id="D67o8UtpvSMQAMpsR08U-14" value="+ code: int" style="text;strokeColor=none;fillColor=none;align=left;verticalAlign=middle;spacingLeft=4;spacingRight=4;overflow=hidden;points=[[0,0.5],[1,0.5]];portConstraint=eastwest;rotatable=0;" parent="D67o8UtpvSMQAMpsR08U-12" vertex="1">
                    <mxGeometry y="60" width="160" height="30" as="geometry"/>
                </mxCell>
                <mxCell id="D67o8UtpvSMQAMpsR08U-16" value="+ distance: int" style="text;strokeColor=none;fillColor=none;align=left;verticalAlign=middle;spacingLeft=4;spacingRight=4;overflow=hidden;points=[[0,0.5],[1,0.5]];portConstraint=eastwest;rotatable=0;" parent="D67o8UtpvSMQAMpsR08U-12" vertex="1">
                    <mxGeometry y="90" width="160" height="30" as="geometry"/>
                </mxCell>
                <mxCell id="D67o8UtpvSMQAMpsR08U-18" value="+ fk_bus_id: int" style="text;strokeColor=none;fillColor=none;align=left;verticalAlign=middle;spacingLeft=4;spacingRight=4;overflow=hidden;points=[[0,0.5],[1,0.5]];portConstraint=eastwest;rotatable=0;fontStyle=2" parent="D67o8UtpvSMQAMpsR08U-12" vertex="1">
                    <mxGeometry y="120" width="160" height="30" as="geometry"/>
                </mxCell>
                <mxCell id="D67o8UtpvSMQAMpsR08U-19" value="Bus Station" style="swimlane;fontStyle=0;childLayout=stackLayout;horizontal=1;startSize=30;horizontalStack=0;resizeParent=1;resizeParentMax=0;resizeLast=0;collapsible=1;marginBottom=0;" parent="H7DWUn0vDwxtsgN2xfW3-1" vertex="1">
                    <mxGeometry x="100" y="50" width="130" height="150" as="geometry"/>
                </mxCell>
                <mxCell id="D67o8UtpvSMQAMpsR08U-20" value="+ station_id: int" style="text;strokeColor=none;fillColor=none;align=left;verticalAlign=middle;spacingLeft=4;spacingRight=4;overflow=hidden;points=[[0,0.5],[1,0.5]];portConstraint=eastwest;rotatable=0;fontStyle=5" parent="D67o8UtpvSMQAMpsR08U-19" vertex="1">
                    <mxGeometry y="30" width="130" height="30" as="geometry"/>
                </mxCell>
                <mxCell id="D67o8UtpvSMQAMpsR08U-21" value="+ address: string" style="text;strokeColor=none;fillColor=none;align=left;verticalAlign=middle;spacingLeft=4;spacingRight=4;overflow=hidden;points=[[0,0.5],[1,0.5]];portConstraint=eastwest;rotatable=0;" parent="D67o8UtpvSMQAMpsR08U-19" vertex="1">
                    <mxGeometry y="60" width="130" height="30" as="geometry"/>
                </mxCell>
                <mxCell id="D67o8UtpvSMQAMpsR08U-22" value="+ telephone: string" style="text;strokeColor=none;fillColor=none;align=left;verticalAlign=middle;spacingLeft=4;spacingRight=4;overflow=hidden;points=[[0,0.5],[1,0.5]];portConstraint=eastwest;rotatable=0;" parent="D67o8UtpvSMQAMpsR08U-19" vertex="1">
                    <mxGeometry y="90" width="130" height="30" as="geometry"/>
                </mxCell>
                <mxCell id="D67o8UtpvSMQAMpsR08U-25" value="+ fk_city_id: int" style="text;strokeColor=none;fillColor=none;align=left;verticalAlign=middle;spacingLeft=4;spacingRight=4;overflow=hidden;points=[[0,0.5],[1,0.5]];portConstraint=eastwest;rotatable=0;fontStyle=2" parent="D67o8UtpvSMQAMpsR08U-19" vertex="1">
                    <mxGeometry y="120" width="130" height="30" as="geometry"/>
                </mxCell>
                <mxCell id="dS7gG06pIL7E628DNN96-1" style="edgeStyle=orthogonalEdgeStyle;html=1;startArrow=ERmany;startFill=0;endArrow=ERone;endFill=0;entryX=0;entryY=0.5;entryDx=0;entryDy=0;exitX=1;exitY=0.5;exitDx=0;exitDy=0;" parent="H7DWUn0vDwxtsgN2xfW3-1" source="dS7gG06pIL7E628DNN96-0" target="D67o8UtpvSMQAMpsR08U-13" edge="1">
                    <mxGeometry relative="1" as="geometry"/>
                </mxCell>
                <mxCell id="dS7gG06pIL7E628DNN96-2" value="" style="edgeStyle=orthogonalEdgeStyle;html=1;startArrow=ERmany;startFill=0;endArrow=ERone;endFill=0;exitX=0;exitY=0.5;exitDx=0;exitDy=0;entryX=1;entryY=0.5;entryDx=0;entryDy=0;" parent="H7DWUn0vDwxtsgN2xfW3-1" source="-x5kEt4TQjW8k059a6kW-25" target="D67o8UtpvSMQAMpsR08U-20" edge="1">
                    <mxGeometry relative="1" as="geometry"/>
                </mxCell>
                <mxCell id="-x5kEt4TQjW8k059a6kW-21" value="Bus Stop (StationToRoute)" style="swimlane;fontStyle=0;childLayout=stackLayout;horizontal=1;startSize=30;horizontalStack=0;resizeParent=1;resizeParentMax=0;resizeLast=0;collapsible=1;marginBottom=0;" parent="H7DWUn0vDwxtsgN2xfW3-1" vertex="1">
                    <mxGeometry x="330" y="80" width="180" height="120" as="geometry"/>
                </mxCell>
                <mxCell id="-x5kEt4TQjW8k059a6kW-23" value="+ orderNr: int" style="text;strokeColor=none;fillColor=none;align=left;verticalAlign=middle;spacingLeft=4;spacingRight=4;overflow=hidden;points=[[0,0.5],[1,0.5]];portConstraint=eastwest;rotatable=0;" parent="-x5kEt4TQjW8k059a6kW-21" vertex="1">
                    <mxGeometry y="30" width="180" height="30" as="geometry"/>
                </mxCell>
                <mxCell id="-x5kEt4TQjW8k059a6kW-25" value="+ fk_station_id: int" style="text;strokeColor=none;fillColor=none;align=left;verticalAlign=middle;spacingLeft=4;spacingRight=4;overflow=hidden;points=[[0,0.5],[1,0.5]];portConstraint=eastwest;rotatable=0;fontStyle=7" parent="-x5kEt4TQjW8k059a6kW-21" vertex="1">
                    <mxGeometry y="60" width="180" height="30" as="geometry"/>
                </mxCell>
                <mxCell id="dS7gG06pIL7E628DNN96-0" value="+ fk_route_id: int" style="text;strokeColor=none;fillColor=none;align=left;verticalAlign=middle;spacingLeft=4;spacingRight=4;overflow=hidden;points=[[0,0.5],[1,0.5]];portConstraint=eastwest;rotatable=0;fontStyle=7" parent="-x5kEt4TQjW8k059a6kW-21" vertex="1">
                    <mxGeometry y="90" width="180" height="30" as="geometry"/>
                </mxCell>
                <mxCell id="XXi1nXnWxD-t8uVt4uIA-0" value="" style="edgeStyle=none;html=1;endArrow=ERmany;endFill=0;" edge="1" parent="H7DWUn0vDwxtsgN2xfW3-1" source="xtpLOXFME-lqtCeXYpl2-0" target="D67o8UtpvSMQAMpsR08U-18">
                    <mxGeometry relative="1" as="geometry"/>
                </mxCell>
                <mxCell id="XXi1nXnWxD-t8uVt4uIA-1" style="edgeStyle=none;html=1;endArrow=ERmany;endFill=0;" edge="1" parent="H7DWUn0vDwxtsgN2xfW3-1" source="xtpLOXFME-lqtCeXYpl2-0" target="D67o8UtpvSMQAMpsR08U-1">
                    <mxGeometry relative="1" as="geometry"/>
                </mxCell>
                <mxCell id="xtpLOXFME-lqtCeXYpl2-0" value="BusToRoute" style="swimlane;fontStyle=0;childLayout=stackLayout;horizontal=1;startSize=30;horizontalStack=0;resizeParent=1;resizeParentMax=0;resizeLast=0;collapsible=1;marginBottom=0;" vertex="1" parent="H7DWUn0vDwxtsgN2xfW3-1">
                    <mxGeometry x="640" y="310" width="140" height="90" as="geometry"/>
                </mxCell>
                <mxCell id="xtpLOXFME-lqtCeXYpl2-2" value="+ fk_route_id: int" style="text;strokeColor=none;fillColor=none;align=left;verticalAlign=middle;spacingLeft=4;spacingRight=4;overflow=hidden;points=[[0,0.5],[1,0.5]];portConstraint=eastwest;rotatable=0;fontStyle=7" vertex="1" parent="xtpLOXFME-lqtCeXYpl2-0">
                    <mxGeometry y="30" width="140" height="30" as="geometry"/>
                </mxCell>
                <mxCell id="xtpLOXFME-lqtCeXYpl2-3" value="+ fk_bus_id: int" style="text;strokeColor=none;fillColor=none;align=left;verticalAlign=middle;spacingLeft=4;spacingRight=4;overflow=hidden;points=[[0,0.5],[1,0.5]];portConstraint=eastwest;rotatable=0;fontStyle=7" vertex="1" parent="xtpLOXFME-lqtCeXYpl2-0">
                    <mxGeometry y="60" width="140" height="30" as="geometry"/>
                </mxCell>
                <mxCell id="XXi1nXnWxD-t8uVt4uIA-2" value="Primary Key" style="text;html=1;strokeColor=none;fillColor=none;align=left;verticalAlign=middle;whiteSpace=wrap;rounded=0;fontSize=20;fontStyle=5" vertex="1" parent="H7DWUn0vDwxtsgN2xfW3-1">
                    <mxGeometry x="70" y="540" width="140" height="30" as="geometry"/>
                </mxCell>
                <mxCell id="XXi1nXnWxD-t8uVt4uIA-3" value="&lt;i&gt;Foreign Key&lt;/i&gt;" style="text;html=1;strokeColor=none;fillColor=none;align=left;verticalAlign=middle;whiteSpace=wrap;rounded=0;fontSize=20;" vertex="1" parent="H7DWUn0vDwxtsgN2xfW3-1">
                    <mxGeometry x="70" y="580" width="140" height="30" as="geometry"/>
                </mxCell>
            </root>
        </mxGraphModel>
    </diagram>
</mxfile>